<svg width="102" height="102" viewBox="0 0 102 102" fill="none" xmlns="http://www.w3.org/2000/svg">
<path fill-rule="evenodd" clip-rule="evenodd" d="M83.983 17.1731C75.2534 8.42945 63.6233 3.61409 51.247 3.60001C25.7481 3.60001 4.98014 24.3539 4.98014 49.8669C4.98014 58.0192 7.10621 65.9885 11.1613 73.0003L4.59998 96.9786L29.1273 90.544C35.8857 94.233 43.4889 96.176 51.2329 96.176H51.247C76.7459 96.176 97.4998 75.4221 97.5139 49.9091C97.528 37.5469 92.7267 25.9168 83.983 17.1731ZM51.2611 88.3616H51.247C44.3478 88.3616 45.6995 93.5059 39.8 90L30.2678 82.1664L41.4 90L51.2611 88.3616L60.6 90.544L68.6 84.2232C77.4 80.4 95 62.0794 95 54.8C90.6864 34.105 96.5528 40.4 78.4637 22.6925C88.7421 22.6925 103 43.6 78.4637 22.6925C87.7676 30 95.0141 44.5357 95 54.8C95 76.0186 72.4515 88.3616 51.2611 88.3616Z" fill="#2EB843"/>
<g filter="url(#filter0_d_88_549)">
<path fill-rule="evenodd" clip-rule="evenodd" d="M83.983 17.1731C75.2534 8.42945 63.6233 3.61409 51.247 3.60001C25.7481 3.60001 4.98014 24.3539 4.98014 49.8669C4.98014 58.0192 7.10621 65.9885 11.1613 73.0003L4.59998 96.9786L29.1273 90.544C35.8857 94.233 43.4889 96.176 51.2329 96.176H51.247C76.7459 96.176 97.4998 75.4221 97.5139 49.9091C97.528 37.5469 92.7267 25.9168 83.983 17.1731ZM51.2611 88.3616H51.247C44.3478 88.3616 37.5753 86.5031 31.6758 82.9971L30.2678 82.1664L15.7091 85.9821L19.5952 71.7895L18.68 70.3392C14.8361 64.2144 12.7945 57.1462 12.7945 49.8669C12.8086 28.6624 30.0566 11.4144 51.2752 11.4144C61.5536 11.4144 71.1984 15.4272 78.4637 22.6925C85.7289 29.9578 89.7277 39.6307 89.7136 49.895C89.7136 71.1136 72.4515 88.3616 51.2611 88.3616Z" fill="white"/>
</g>
<g clip-path="url(#clip0_88_549)">
<path d="M73.7097 19.6041C73.0633 19.5379 71.7565 20.2928 71.3799 20.4488C69.1486 21.376 66.9461 22.3792 64.7725 23.4466C60.4229 25.5828 56.1906 27.9739 52.0537 30.5275C46.4833 33.9663 41.0157 37.761 36.6887 42.7843C34.2873 45.5725 32.2693 48.7539 30.9017 52.2288C30.2069 53.9947 29.6828 55.836 29.3777 57.7199C29.1832 58.9237 28.9045 60.096 29.0018 61.3285C29.0871 62.4156 29.4493 63.506 30.1667 64.2989C30.4008 64.5577 30.6795 64.7877 31.0078 64.884C31.5877 65.0544 32.2242 64.7667 32.6346 64.3067C33.0451 63.8461 33.2686 63.2393 33.4418 62.6371C33.5554 62.2433 33.6521 61.8364 33.6326 61.4255C33.6132 61.0147 33.4619 60.5946 33.1543 60.3378C32.0961 59.4525 31.068 59.2415 30.8546 57.5895C30.7241 56.5804 30.9751 55.5595 31.3009 54.5995C33.3998 48.4098 38.4706 43.8826 43.6055 40.0912C51.1951 34.4866 59.4061 29.8008 68.0225 26.1568C69.5653 25.5042 71.3134 24.8482 72.4933 23.5639C73.0275 22.982 74.4133 20.648 74.0386 19.8112C73.9809 19.6827 73.8641 19.6198 73.7097 19.6041Z" fill="white"/>
<path d="M72.3402 42.9586C71.7157 43.283 70.864 44.0772 70.5156 44.1597C69.9815 44.2869 69.4229 44.2744 68.8919 44.4153C68.0822 44.6302 67.4012 45.1807 66.6901 45.638C65.8986 46.1465 65.0268 46.5548 64.1022 46.6491C63.1777 46.7435 62.1916 46.4905 61.5182 45.8228C60.3714 44.6859 60.4286 42.7856 60.6501 41.1507C60.974 38.7564 61.6092 36.4826 62.1126 34.1334C62.2431 33.5247 62.3109 32.8688 62.2494 32.241C62.2218 31.9579 62.2067 31.7378 62.0128 31.5589C61.3788 32.182 61.0681 33.7167 60.7625 34.5862C60.379 35.6786 60.0281 36.7827 59.7105 37.898C59.0603 40.1809 58.5494 42.5071 58.1828 44.8583C58.019 45.9113 57.8834 46.9813 57.9845 48.0429C58.0855 49.1044 58.4426 50.1692 59.15 50.9392C60.0425 51.9103 61.4673 52.3035 62.7051 51.9267C64.3916 51.4136 65.4523 49.7315 66.7773 48.5265C67.0127 48.3122 67.265 48.1084 67.5575 47.9937C68.1563 47.7585 68.8316 47.9276 69.4586 47.7978C70.2112 47.6419 70.8225 47.0718 71.314 46.4565C71.7364 45.9283 73.3614 43.726 73.0193 42.9816C72.9139 42.7509 72.6559 42.7948 72.3402 42.9586Z" fill="white"/>
<path d="M64.7198 42.9174C65.3413 42.9174 65.8452 42.3913 65.8452 41.7425C65.8452 41.0936 65.3413 40.5676 64.7198 40.5676C64.0983 40.5676 63.5944 41.0936 63.5944 41.7425C63.5944 42.3913 64.0983 42.9174 64.7198 42.9174Z" fill="white"/>
<path d="M44.0235 32.1912C45.14 32.1912 46.0451 31.2463 46.0451 30.0806C46.0451 28.9149 45.14 27.97 44.0235 27.97C42.9069 27.97 42.0018 28.9149 42.0018 30.0806C42.0018 31.2463 42.9069 32.1912 44.0235 32.1912Z" fill="white"/>
<path d="M70.1459 51.8251C70.7674 51.8251 71.2713 51.2991 71.2713 50.6502C71.2713 50.0013 70.7674 49.4753 70.1459 49.4753C69.5244 49.4753 69.0205 50.0013 69.0205 50.6502C69.0205 51.2991 69.5244 51.8251 70.1459 51.8251Z" fill="white"/>
<path d="M77.6464 35.1924C77.1537 34.6819 76.5706 34.2658 75.9323 33.9801C74.9469 33.5385 73.6991 33.4474 72.8913 34.1826C72.1776 34.8326 72.0176 35.9649 72.2699 36.9184C72.6032 38.1778 73.5384 38.8724 74.1303 39.9365C74.6883 40.9404 74.5351 42.0373 74.5012 43.1493C74.4347 45.3327 74.4221 47.8542 73.7644 49.9537C73.4731 50.8829 72.3339 54.2267 72.3339 54.2267L70.3606 58.3877L68.0684 61.8528C68.0684 61.8528 64.7368 65.8807 63.9874 66.0026L61.8558 67.5195L58.9347 69.1446L56.3538 70.4506C56.3538 70.4506 54.0421 71.3129 54.0384 71.3142C47.4938 73.7551 39.2006 73.3311 32.8518 70.4683C28.8436 68.661 25.2848 65.6166 22.9744 61.7309C21.8565 59.8502 20.9213 57.7016 20.7067 55.4914C20.5284 53.6579 20.5956 51.6934 19.9798 49.9386L19.1582 47.5567C19.1582 47.5567 18.8381 46.5489 18.599 46.4414C18.3617 46.334 18.3937 46.2763 18.2224 46.7566C18.2224 46.7566 17.6688 48.8784 17.547 49.7794C17.4265 50.6823 17.3085 53.7372 17.5044 54.4207C17.5044 54.4207 18.1665 58.3523 18.7201 58.9427C18.7201 58.9427 19.7646 62.2747 20.8447 63.3166C20.8447 63.3166 24.2215 68.201 24.7513 68.2528C24.7513 68.2528 28.8857 71.7827 30.1523 72.229C30.1523 72.229 35.1873 74.5749 36.3215 74.8697C36.3215 74.8697 41.2266 75.8985 42.4104 75.9555L48.982 75.7635L55.2115 74.449L61.0725 72.1412L65.8371 69.1951L67.4941 67.9147C67.4941 67.9147 71.533 63.8041 71.3899 63.4359C71.3899 63.4359 74.3864 59.2369 74.0499 58.9014C74.0499 58.9014 76.0873 54.3525 76.3949 53.1409L77.5171 48.3627L77.6445 44.5038C77.6627 43.2699 77.7086 42.0288 77.6916 40.7976C78.5113 40.5473 79.0329 39.7314 79.1315 38.8684C79.2156 38.1365 79.0247 37.3941 78.7122 36.7329C78.4423 36.1615 78.0789 35.6406 77.6464 35.1924ZM74.2225 35.9354C74.7171 35.3575 75.7653 35.4905 76.5656 36.2349C77.3659 36.9793 77.6138 38.0513 77.1192 38.6312C76.6258 39.2092 75.5764 39.0749 74.7774 38.3305C73.9771 37.5867 73.7292 36.5134 74.2225 35.9354Z" fill="white"/>
<path d="M81.5423 47.7952C80.5543 46.7625 79.1961 46.5063 78.5113 47.2212C77.8266 47.9361 78.0713 49.3541 79.0611 50.3868C79.1522 50.4818 79.2476 50.5716 79.3455 50.6542C80.3987 51.5427 77.5203 57.3609 77.0859 58.3379C75.8011 61.2296 74.1893 63.9758 72.1701 66.3748C68.6841 70.5174 64.052 73.5362 59.054 75.3173C47.0438 79.5982 32.6999 77.6815 23.2794 68.3681C22.9869 68.0785 22.7302 67.7666 22.4114 67.6827C24.2397 71.2546 28.8317 74.2138 32.2009 75.966C34.3507 77.0839 36.6297 77.9331 38.974 78.4796C41.2838 79.0182 43.5358 78.9376 45.8518 79.1912C47.7028 79.3937 49.4828 80.0745 51.1606 80.889C53.5494 82.0482 55.8146 83.5029 58.2989 84.4177C60.9376 85.3895 62.9078 83.4715 64.9753 81.9421C67.3842 80.1604 69.6513 78.1454 71.5575 75.7845C74.6807 71.9164 75.9976 67.7148 76.8192 62.8265C76.8317 62.7524 77.5611 61.668 77.7042 61.377C78.1987 60.3731 78.6488 59.3457 79.053 58.2986C79.6191 56.8308 80.0943 55.3243 80.4746 53.7929C80.6083 53.2543 80.6297 52.1187 80.9422 51.6862C81.241 51.2721 81.7431 51.3278 82.094 50.9615C82.7781 50.2459 82.5315 48.8279 81.5423 47.7952ZM81.2153 49.9406C80.9071 50.3016 80.2524 50.2178 79.7541 49.7532C79.2538 49.2886 79.1001 48.6195 79.4082 48.2585C79.7164 47.8974 80.3711 47.9813 80.8694 48.4459C81.3678 48.9105 81.5234 49.5795 81.2153 49.9406Z" fill="white"/>
<path d="M42.5152 71.2723C39.1434 71.1858 35.8765 70.0168 32.8242 68.5195C32.1005 68.1637 31.3831 67.7902 30.7008 67.3538C28.5869 66.0026 26.8834 64.1147 25.3695 62.0919C25.0155 61.6188 24.6603 61.1437 24.3621 60.63C23.9071 59.8463 23.5888 58.9761 23.4282 58.0751C23.6591 58.4276 23.8882 58.7815 24.1142 59.1366L25.6921 61.6378L25.6865 61.645C26.5978 62.9353 27.7458 64.059 28.9158 65.0891C32.5499 68.2888 37.1588 70.1413 41.8467 70.7684C42.0495 70.7952 42.2918 70.7979 42.4782 70.8876C42.664 70.9754 42.932 71.2821 42.5152 71.2723Z" fill="white"/>
</g>
<defs>
<filter id="filter0_d_88_549" x="0.599976" y="0.600006" width="100.914" height="101.379" filterUnits="userSpaceOnUse" color-interpolation-filters="sRGB">
<feFlood flood-opacity="0" result="BackgroundImageFix"/>
<feColorMatrix in="SourceAlpha" type="matrix" values="0 0 0 0 0 0 0 0 0 0 0 0 0 0 0 0 0 0 127 0" result="hardAlpha"/>
<feOffset dy="1"/>
<feGaussianBlur stdDeviation="2"/>
<feComposite in2="hardAlpha" operator="out"/>
<feColorMatrix type="matrix" values="0 0 0 0 0.1616 0 0 0 0 0.0976 0 0 0 0 0.3024 0 0 0 0.4 0"/>
<feBlend mode="normal" in2="BackgroundImageFix" result="effect1_dropShadow_88_549"/>
<feBlend mode="normal" in="SourceGraphic" in2="effect1_dropShadow_88_549" result="shape"/>
</filter>
<clipPath id="clip0_88_549">
<rect width="65.6" height="65.6" fill="white" transform="translate(17.4 19.6)"/>
</clipPath>
</defs>
</svg>