<svg width="31" height="31" viewBox="0 0 31 31" fill="none" xmlns="http://www.w3.org/2000/svg">
<path d="M9.94934 13.2919C9.94934 12.3519 9.94934 11.4619 9.94934 10.5635C9.95766 7.86004 11.7711 5.63072 14.408 5.07339C17.5274 4.41624 20.6467 6.6206 20.9961 9.78989C21.1126 10.8047 21.046 11.8445 21.0627 12.876C21.0627 13.0008 21.0627 13.1256 21.0627 13.2919C21.3205 13.2919 21.5534 13.2919 21.7864 13.2919C23.2753 13.3002 24.2985 14.3151 24.2985 15.7957C24.2985 17.9918 24.2985 20.1878 24.2985 22.3756C24.2985 23.8729 23.292 24.8794 21.7947 24.8877C17.6022 24.896 13.4098 24.896 9.21732 24.8877C7.72002 24.8877 6.7135 23.8729 6.7135 22.3756C6.7135 20.1795 6.7135 17.9835 6.7135 15.7957C6.7135 14.3068 7.73666 13.3002 9.22564 13.2919C9.45856 13.2919 9.68315 13.2919 9.94934 13.2919ZM15.5393 14.6977C13.4514 14.6977 11.3551 14.6977 9.26723 14.6977C8.49363 14.6977 8.12762 15.0637 8.12762 15.8457C8.12762 18.0084 8.12762 20.1712 8.12762 22.334C8.12762 23.1242 8.50195 23.4902 9.30051 23.4902C13.443 23.4902 17.5773 23.4902 21.7198 23.4902C22.5184 23.4902 22.8927 23.1242 22.8927 22.334C22.8927 20.1712 22.8927 18.0084 22.8927 15.8457C22.8927 15.0637 22.5267 14.6977 21.7531 14.6977C19.6735 14.6977 17.6022 14.6977 15.5393 14.6977ZM19.6319 13.2753C19.6319 12.2189 19.6818 11.1874 19.6236 10.1642C19.5071 8.10127 17.8185 6.50414 15.689 6.36273C13.7092 6.22964 11.7627 7.68535 11.4633 9.67344C11.2886 10.838 11.3884 12.0358 11.3635 13.2171C11.3635 13.2337 11.3884 13.2503 11.4051 13.2753C14.1335 13.2753 16.8702 13.2753 19.6319 13.2753Z" fill="#828183" stroke="#828183" stroke-width="0.5"/>
<path d="M6.27271 27.2833C6.27271 27.9821 6.28103 28.6226 6.27271 29.2548C6.27271 29.5792 6.07307 29.8371 5.79856 29.9119C5.50742 29.9951 5.23292 29.9369 5.04159 29.6873C4.95841 29.5709 4.89186 29.4045 4.89186 29.2631C4.88354 28.0736 4.88354 26.8924 4.88354 25.7028C4.88354 25.3867 5.04159 25.1705 5.33274 25.054C5.62388 24.9375 5.88175 25.0207 6.10634 25.237C6.98809 26.1021 7.96133 26.8424 9.04272 27.4331C11.5465 28.7973 14.2084 29.338 17.045 29.0052C22.4852 28.373 26.9438 24.5632 28.3912 19.2894C29.2729 16.0619 28.9569 12.9258 27.5011 9.91461C27.4512 9.81479 27.393 9.71497 27.3514 9.60683C27.185 9.21587 27.3265 8.8249 27.6841 8.65854C28.0335 8.50049 28.4328 8.61694 28.6075 8.99959C28.9402 9.73992 29.2979 10.4719 29.5475 11.2372C32.0346 18.9733 27.9254 27.1835 20.2143 29.7289C15.3231 31.326 10.7646 30.5275 6.59712 27.5162C6.51394 27.4497 6.42244 27.3831 6.27271 27.2833Z" fill="#828183" stroke="#828183" stroke-width="0.5"/>
<path d="M24.7394 4.20827C24.7394 3.55112 24.7311 2.91893 24.7394 2.28674C24.7477 1.954 24.9557 1.69613 25.2468 1.61295C25.5463 1.52977 25.8874 1.65454 26.0288 1.92905C26.0953 2.05382 26.1286 2.20355 26.1286 2.34496C26.1369 3.48458 26.1286 4.63251 26.1369 5.78044C26.1369 6.10486 26.0204 6.34609 25.7127 6.47918C25.3966 6.61228 25.1304 6.52078 24.8892 6.28786C23.5166 4.94861 21.9445 3.93377 20.1394 3.25998C12.5364 0.440061 4.13487 5.04843 2.45456 12.9758C1.80573 16.012 2.19669 18.9234 3.5609 21.7101C3.59418 21.7849 3.63577 21.8598 3.66904 21.9347C3.83541 22.3256 3.70232 22.7166 3.34463 22.883C2.99526 23.0493 2.58766 22.9246 2.42129 22.5502C2.0636 21.7434 1.67264 20.9448 1.42309 20.1046C-0.939323 12.2854 3.26976 4.19996 11.0557 1.73772C15.8305 0.232103 20.2891 1.05562 24.3568 3.98368C24.4483 4.05023 24.5398 4.12509 24.6313 4.19164C24.6479 4.19996 24.6729 4.19996 24.7394 4.20827Z" fill="#828183" stroke="#828183" stroke-width="0.5"/>
<path d="M11.0142 17.6923C11.7961 17.6923 12.42 18.3161 12.4117 19.0981C12.4034 19.8634 11.7878 20.4872 11.0225 20.4955C10.2489 20.5039 9.6084 19.8717 9.6084 19.0981C9.6084 18.3161 10.2323 17.6923 11.0142 17.6923Z" fill="#828183" stroke="#828183" stroke-width="0.5"/>
<path d="M15.506 17.6923C16.2879 17.6923 16.9118 18.3161 16.9035 19.0981C16.9035 19.8717 16.263 20.5039 15.4894 20.4955C14.7241 20.4872 14.1085 19.8634 14.1002 19.0981C14.1002 18.3161 14.7158 17.6923 15.506 17.6923Z" fill="#828183" stroke="#828183" stroke-width="0.5"/>
<path d="M20.0146 17.6923C20.7965 17.7006 21.4121 18.3328 21.4037 19.1147C21.3871 19.88 20.7716 20.4955 20.0063 20.4955C19.2327 20.4955 18.6005 19.8633 18.6005 19.0814C18.6005 18.3078 19.2243 17.6923 20.0146 17.6923Z" fill="#828183" stroke="#828183" stroke-width="0.5"/>
</svg>
