<svg width="27" height="29" viewBox="0 0 27 29" fill="none" xmlns="http://www.w3.org/2000/svg">
<path d="M4.9539 28.3655C4.69861 28.2804 4.42205 28.2165 4.18094 28.096C3.35125 27.6847 2.84068 27.011 2.76976 26.082C2.67048 24.6567 2.62084 23.2313 2.55702 21.806C2.43647 19.2105 2.32301 16.6151 2.20245 14.0268C2.12445 12.3248 2.04645 10.63 1.97553 8.92808C1.95426 8.28986 2.30173 7.94238 2.94705 7.94238C9.67673 7.94238 16.3993 7.94238 23.129 7.94238C23.7743 7.94238 24.1218 8.28986 24.0934 8.92808C23.98 11.481 23.8594 14.0268 23.746 16.5796C23.6467 18.7212 23.5545 20.8628 23.4623 23.0044C23.4198 24.0043 23.3914 25.0042 23.3134 26.004C23.2141 27.2238 22.4199 28.0818 21.2214 28.3229C21.186 28.33 21.1576 28.3513 21.1293 28.3655C15.7327 28.3655 10.3433 28.3655 4.9539 28.3655ZM3.74837 9.6514C3.74837 9.92087 3.74128 10.1691 3.74837 10.4173C3.86183 12.9772 3.98238 15.5372 4.09584 18.0901C4.20931 20.6288 4.31568 23.1746 4.43623 25.7133C4.46459 26.3586 4.7908 26.6635 5.43611 26.6635C10.5064 26.6635 15.5767 26.6635 20.647 26.6635C21.2853 26.6635 21.6115 26.3586 21.6398 25.7133C21.6682 25.1814 21.6824 24.6496 21.7107 24.1177C21.8029 21.9762 21.9022 19.8346 22.0015 17.693C22.115 15.0976 22.2355 12.5021 22.3561 9.91378C22.3632 9.82868 22.3561 9.74358 22.3561 9.6514C16.1299 9.6514 9.94621 9.6514 3.74837 9.6514Z" fill="#828183" stroke="#828183" stroke-width="0.2"/>
<path d="M16.8178 1.13464C16.9241 1.1701 17.0305 1.20556 17.144 1.23392C18.236 1.55303 18.9806 2.51746 19.0019 3.65207C19.009 3.93573 19.0019 4.21938 19.0019 4.53849C19.1083 4.53849 19.2005 4.53849 19.2997 4.53849C20.8953 4.53849 22.4909 4.53849 24.0864 4.53849C24.4977 4.53849 24.8097 4.7725 24.9232 5.14835C25.0296 5.49582 24.909 5.87875 24.5899 6.07731C24.4552 6.16241 24.285 6.20496 24.1219 6.23332C23.9659 6.26169 23.8028 6.24041 23.6467 6.24041C16.4916 6.24041 9.3435 6.24041 2.18833 6.24041C2.06777 6.24041 1.94013 6.2475 1.81958 6.21914C1.3941 6.13404 1.09626 5.72984 1.13881 5.30436C1.17426 4.86469 1.53592 4.53849 2.00395 4.53849C3.28749 4.5314 4.57102 4.53849 5.86164 4.53849C6.25876 4.53849 6.65588 4.53849 7.08845 4.53849C7.08845 4.27611 7.08845 4.02791 7.08845 3.78681C7.09554 2.45363 7.87559 1.47503 9.18039 1.18428C9.21585 1.17719 9.24422 1.15592 9.27258 1.14173C11.7829 1.13464 14.3003 1.13464 16.8178 1.13464ZM8.78328 4.52431C11.634 4.52431 14.4564 4.52431 17.2929 4.52431C17.2929 4.21938 17.3071 3.92154 17.2929 3.6308C17.2716 3.19823 16.9171 2.84366 16.4774 2.84366C14.194 2.83657 11.9035 2.83657 9.62006 2.84366C9.16621 2.84366 8.81164 3.20532 8.79746 3.65207C8.77619 3.93573 8.78328 4.21229 8.78328 4.52431Z" fill="#828183" stroke="#828183" stroke-width="0.2"/>
<path d="M16.8675 17.7C16.9384 16.1541 17.0022 14.6011 17.0731 13.0552C17.0944 12.5588 17.4702 12.1901 17.9383 12.2043C18.4205 12.2113 18.7892 12.6085 18.7679 13.119C18.7183 14.4168 18.6616 15.7216 18.6048 17.0193C18.5268 18.7992 18.4488 20.5791 18.3708 22.352C18.3425 22.9122 17.9737 23.2809 17.4773 23.2597C16.9809 23.2313 16.6476 22.8271 16.676 22.2669C16.7398 20.7422 16.8036 19.2176 16.8675 17.7Z" fill="#828183" stroke="#828183" stroke-width="0.2"/>
<path d="M12.1871 17.7C12.1871 16.1682 12.1871 14.6365 12.1871 13.0977C12.1871 12.4453 12.7686 12.0269 13.343 12.2538C13.6905 12.3886 13.8749 12.658 13.889 13.0339C13.8961 13.3246 13.889 13.6154 13.889 13.9132C13.889 16.6859 13.889 19.4586 13.889 22.2384C13.889 22.3519 13.8961 22.4725 13.8678 22.5788C13.7827 23.0043 13.3785 23.3021 12.953 23.2525C12.5133 23.21 12.1942 22.8483 12.1871 22.3803C12.18 20.9904 12.1871 19.6005 12.1871 18.2035C12.1871 18.0404 12.1871 17.8702 12.1871 17.7Z" fill="#828183" stroke="#828183" stroke-width="0.2"/>
<path d="M7.50689 17.7355C7.44307 16.2676 7.37925 14.7997 7.31542 13.3247C7.30833 13.1757 7.30124 13.0197 7.32961 12.8779C7.4147 12.4524 7.79054 12.1688 8.21603 12.1971C8.63442 12.2255 8.9748 12.5659 8.99607 12.9985C9.0528 14.1544 9.10244 15.3173 9.15208 16.4732C9.23718 18.3737 9.32228 20.2813 9.39319 22.1818C9.40028 22.3661 9.3861 22.5576 9.32937 22.7278C9.20172 23.0894 8.80461 23.3022 8.43586 23.2525C8.02456 23.1887 7.72672 22.8625 7.70545 22.43C7.64163 20.8628 7.57071 19.3027 7.50689 17.7355Z" fill="#828183" stroke="#828183" stroke-width="0.2"/>
</svg>
