<svg width="32" height="33" viewBox="0 0 32 33" fill="none" xmlns="http://www.w3.org/2000/svg">
<path d="M9.36605 28.5C9.14105 28.425 8.8973 28.3688 8.6848 28.2625C7.95355 27.9 7.50355 27.3062 7.44105 26.4875C7.35355 25.2312 7.3098 23.975 7.25355 22.7188C7.1473 20.4312 7.0473 18.1438 6.94105 15.8625C6.8723 14.3625 6.80355 12.8688 6.74105 11.3688C6.7223 10.8063 7.02855 10.5 7.5973 10.5C13.5285 10.5 19.4535 10.5 25.3848 10.5C25.9535 10.5 26.2598 10.8063 26.2348 11.3688C26.1348 13.6188 26.0285 15.8625 25.9285 18.1125C25.841 20 25.7598 21.8875 25.6785 23.775C25.641 24.6562 25.616 25.5375 25.5473 26.4188C25.4598 27.4938 24.7598 28.25 23.7035 28.4625C23.6723 28.4688 23.6473 28.4875 23.6223 28.5C18.866 28.5 14.116 28.5 9.36605 28.5ZM8.30355 12.0062C8.30355 12.2437 8.2973 12.4625 8.30355 12.6812C8.40355 14.9375 8.5098 17.1938 8.6098 19.4438C8.7098 21.6813 8.80355 23.925 8.9098 26.1625C8.9348 26.7313 9.2223 27 9.79105 27C14.2598 27 18.7285 27 23.1973 27C23.7598 27 24.0473 26.7313 24.0723 26.1625C24.0973 25.6938 24.1098 25.225 24.1348 24.7563C24.216 22.8688 24.3035 20.9812 24.391 19.0938C24.491 16.8063 24.5973 14.5188 24.7035 12.2375C24.7098 12.1625 24.7035 12.0875 24.7035 12.0062C19.216 12.0062 13.766 12.0062 8.30355 12.0062Z" fill="#C32222" stroke="#C32222" stroke-width="0.2"/>
<path d="M19.8223 4.5C19.9161 4.53125 20.0098 4.5625 20.1098 4.5875C21.0723 4.86875 21.7286 5.71875 21.7473 6.71875C21.7536 6.96875 21.7473 7.21875 21.7473 7.5C21.8411 7.5 21.9223 7.5 22.0098 7.5C23.4161 7.5 24.8223 7.5 26.2286 7.5C26.5911 7.5 26.8661 7.70625 26.9661 8.0375C27.0598 8.34375 26.9536 8.68125 26.6723 8.85625C26.5536 8.93125 26.4036 8.96875 26.2598 8.99375C26.1223 9.01875 25.9786 9 25.8411 9C19.5348 9 13.2348 9 6.92856 9C6.82231 9 6.70981 9.00625 6.60356 8.98125C6.22856 8.90625 5.96606 8.55 6.00356 8.175C6.03481 7.7875 6.35356 7.5 6.76606 7.5C7.89731 7.49375 9.02856 7.5 10.1661 7.5C10.5161 7.5 10.8661 7.5 11.2473 7.5C11.2473 7.26875 11.2473 7.05 11.2473 6.8375C11.2536 5.6625 11.9411 4.8 13.0911 4.54375C13.1223 4.5375 13.1473 4.51875 13.1723 4.50625C15.3848 4.5 17.6036 4.5 19.8223 4.5ZM12.7411 7.4875C15.2536 7.4875 17.7411 7.4875 20.2411 7.4875C20.2411 7.21875 20.2536 6.95625 20.2411 6.7C20.2223 6.31875 19.9098 6.00625 19.5223 6.00625C17.5098 6 15.4911 6 13.4786 6.00625C13.0786 6.00625 12.7661 6.325 12.7536 6.71875C12.7348 6.96875 12.7411 7.2125 12.7411 7.4875Z" fill="#C32222" stroke="#C32222" stroke-width="0.2"/>
<path d="M19.8655 19.1C19.928 17.7375 19.9843 16.3688 20.0468 15.0063C20.0655 14.5688 20.3968 14.2438 20.8093 14.2563C21.2343 14.2625 21.5593 14.6125 21.5405 15.0625C21.4968 16.2063 21.4468 17.3563 21.3968 18.5C21.328 20.0688 21.2593 21.6375 21.1905 23.2C21.1655 23.6938 20.8405 24.0188 20.403 24C19.9655 23.975 19.6718 23.6188 19.6968 23.125C19.753 21.7813 19.8093 20.4375 19.8655 19.1Z" fill="#C32222" stroke="#C32222" stroke-width="0.2"/>
<path d="M15.7411 19.1C15.7411 17.75 15.7411 16.4 15.7411 15.0438C15.7411 14.4688 16.2536 14.1 16.7598 14.3C17.0661 14.4188 17.2286 14.6563 17.2411 14.9875C17.2473 15.2438 17.2411 15.5 17.2411 15.7625C17.2411 18.2063 17.2411 20.65 17.2411 23.1C17.2411 23.2 17.2473 23.3063 17.2223 23.4C17.1473 23.775 16.7911 24.0375 16.4161 23.9938C16.0286 23.9563 15.7473 23.6375 15.7411 23.225C15.7348 22 15.7411 20.775 15.7411 19.5438C15.7411 19.4 15.7411 19.25 15.7411 19.1Z" fill="#C32222" stroke="#C32222" stroke-width="0.2"/>
<path d="M11.6157 19.1313C11.5595 17.8375 11.5032 16.5438 11.447 15.2438C11.4407 15.1125 11.4345 14.975 11.4595 14.85C11.5345 14.475 11.8657 14.225 12.2407 14.25C12.6095 14.275 12.9095 14.575 12.9282 14.9563C12.9782 15.975 13.022 17 13.0657 18.0188C13.1407 19.6938 13.2157 21.375 13.2782 23.05C13.2845 23.2125 13.272 23.3813 13.222 23.5313C13.1095 23.85 12.7595 24.0375 12.4345 23.9938C12.072 23.9375 11.8095 23.65 11.7907 23.2688C11.7345 21.8875 11.672 20.5125 11.6157 19.1313Z" fill="#C32222" stroke="#C32222" stroke-width="0.2"/>
</svg>