<svg width="30" height="29" viewBox="0 0 30 29" fill="none" xmlns="http://www.w3.org/2000/svg">
<g clip-path="url(#clip0_260_415)">
<path d="M27.8667 29.3334H1.46667C0.635556 29.3334 0 28.6989 0 27.8691V3.56298C0 2.73325 0.635556 2.09875 1.46667 2.09875H12.9556C13.7867 2.09875 14.4222 2.58859 14.4222 3.56298C14.4222 4.39271 13.7867 4.66672 12.9556 4.66672H2.6665V15.8542V26.6667H26.6665V14.7887C26.6665 13.959 27.0356 13.3245 27.8667 13.3245C28.6978 13.3245 29.3333 13.959 29.3333 14.7887V27.8691C29.3333 28.6989 28.6489 29.3334 27.8667 29.3334Z" fill="#828183"/>
<path d="M8.99548 21.7682C8.60436 21.7682 8.21325 21.6217 7.96881 21.3289C7.67548 21.0361 7.52881 20.6944 7.52881 20.3039V14.447C7.52881 14.0566 7.67548 13.6661 7.96881 13.4221L20.9733 0.439268C21.2177 0.146423 21.6088 0 21.9999 0C22.391 0 22.7821 0.146423 23.0266 0.439268L28.8932 6.29617C29.4799 6.88186 29.4799 7.80921 28.8932 8.34609L15.8888 21.3289C15.5955 21.6217 15.2533 21.7682 14.8621 21.7682H8.99548ZM9.6665 14.6667L10.1665 19.1667H15.1665L26.1665 7.66666L21.6665 3.16666L9.6665 14.6667Z" fill="#828183"/>
</g>
<defs>
<clipPath id="clip0_260_415">
<rect width="29.3333" height="29.3333" fill="white"/>
</clipPath>
</defs>
</svg>
