<svg width="256" height="256" viewBox="0 0 256 256" fill="none" xmlns="http://www.w3.org/2000/svg">
<g clip-path="url(#clip0_325_391)">
<g filter="url(#filter0_d_325_391)">
<path d="M82.4798 236.206C55.6983 235.811 32.7014 227.854 12.5621 211.796C10.2138 209.919 8.64061 207.639 8.56461 204.599C7.83503 174.511 19.9034 151.119 46.1378 136.14C89.4412 111.418 145.079 138.337 153.013 187.537C153.895 193.024 153.879 198.663 154.115 204.234C154.237 207.152 152.891 209.546 150.627 211.378C133.444 225.27 113.882 233.402 91.8807 235.568C88.4 235.917 84.8965 236.047 82.4798 236.206ZM81.0966 217.967C100.073 217.754 117.241 212.472 132.904 202.053C135.534 200.305 136.134 198.397 135.86 195.502C133.391 169.093 114.019 148.969 87.6248 145.526C56.9218 141.521 28.096 165.833 26.7432 196.824C26.652 198.952 27.222 200.244 29.0231 201.483C44.785 212.305 62.2188 217.716 81.0966 217.967Z" fill="url(#paint0_linear_325_391)"/>
</g>
<g filter="url(#filter1_d_325_391)">
<path d="M35.8402 61.3178C35.9086 36.2234 56.4736 15.8865 81.6743 16.0005C106.624 16.1145 126.923 36.6414 126.855 61.6826C126.786 86.777 106.199 107.129 81.0207 107.008C56.0784 106.894 35.7794 86.3666 35.8402 61.3178ZM54.0492 61.5914C54.0796 76.5933 66.414 88.8441 81.4311 88.8061C96.433 88.7681 108.676 76.4489 108.646 61.4242C108.608 46.4223 96.2886 34.1791 81.2639 34.2095C66.262 34.2475 54.0188 46.5667 54.0492 61.5914Z" fill="url(#paint1_linear_325_391)"/>
</g>
<g filter="url(#filter2_d_325_391)">
<path d="M175.267 115.867C173.221 115.867 170.97 114.824 169.946 112.738C168.309 109.817 169.332 105.854 172.197 104.185L215.376 79.1543C218.241 77.4856 222.129 78.5285 223.766 81.4488C225.403 84.3691 224.38 88.3324 221.515 90.0011L178.336 115.032C177.313 115.658 176.29 115.867 175.267 115.867Z" fill="url(#paint2_linear_325_391)"/>
</g>
<g filter="url(#filter3_d_325_391)">
<path d="M218.445 158.837C217.422 158.837 216.399 158.628 215.376 158.002L172.197 132.971C169.332 131.303 168.309 127.339 169.946 124.419C171.583 121.499 175.472 120.456 178.336 122.125L221.515 147.156C224.38 148.824 225.403 152.788 223.766 155.708C222.743 157.585 220.696 158.837 218.445 158.837Z" fill="url(#paint3_linear_325_391)"/>
</g>
<g filter="url(#filter4_d_325_391)">
<path d="M233.383 181.156C227.858 181.156 222.333 179.07 218.24 174.69C209.85 166.137 209.85 152.37 218.24 143.818C226.63 135.266 240.136 135.266 248.527 143.818C256.917 152.37 256.917 166.137 248.527 174.69C244.434 179.07 238.909 181.156 233.383 181.156ZM233.383 150.076C231.132 150.076 228.677 150.91 227.04 152.788C223.561 156.334 223.561 162.383 227.04 165.929C230.519 169.475 236.453 169.475 239.932 165.929C243.411 162.383 243.411 156.334 239.932 152.788C238.09 150.91 235.634 150.076 233.383 150.076Z" fill="url(#paint4_linear_325_391)"/>
</g>
<g filter="url(#filter5_d_325_391)">
<path d="M162.375 140.272C156.85 140.272 151.325 138.186 147.232 133.805C139.046 125.462 139.046 111.695 147.436 103.142C155.827 94.59 169.333 94.59 177.723 103.142C186.113 111.695 186.113 125.462 177.723 134.014C173.425 138.186 167.9 140.272 162.375 140.272ZM162.375 109.191C160.124 109.191 157.668 110.026 156.031 111.903C152.552 115.449 152.552 121.498 156.031 125.044C159.51 128.591 165.444 128.591 168.923 125.044C172.402 121.498 172.402 115.449 168.923 111.903C167.082 110.234 164.831 109.191 162.375 109.191Z" fill="url(#paint5_linear_325_391)"/>
</g>
<g filter="url(#filter6_d_325_391)">
<path d="M233.383 99.5964C227.858 99.5964 222.333 97.5105 218.24 93.13C209.85 84.5777 209.85 70.8106 218.24 62.2583C226.63 53.9146 240.136 53.9146 248.527 62.4669C256.917 71.0192 256.917 84.7863 248.527 93.3386C244.434 97.5105 238.909 99.5964 233.383 99.5964ZM233.383 68.5161C231.132 68.5161 228.677 69.3505 227.04 71.2278C223.561 74.7739 223.561 80.8231 227.04 84.3691C230.519 87.9152 236.453 87.9152 239.932 84.3691C243.411 80.8231 243.411 74.7739 239.932 71.2278C238.09 69.3505 235.634 68.5161 233.383 68.5161Z" fill="url(#paint6_linear_325_391)"/>
</g>
</g>
<defs>
<filter id="filter0_d_325_391" x="6.73345" y="125.813" width="149.589" height="113.393" filterUnits="userSpaceOnUse" color-interpolation-filters="sRGB">
<feFlood flood-opacity="0" result="BackgroundImageFix"/>
<feColorMatrix in="SourceAlpha" type="matrix" values="0 0 0 0 0 0 0 0 0 0 0 0 0 0 0 0 0 0 127 0" result="hardAlpha"/>
<feOffset dx="0.2" dy="1"/>
<feGaussianBlur stdDeviation="1"/>
<feComposite in2="hardAlpha" operator="out"/>
<feColorMatrix type="matrix" values="0 0 0 0 0.415686 0 0 0 0 0.258824 0 0 0 0 0.760784 0 0 0 0.24 0"/>
<feBlend mode="normal" in2="BackgroundImageFix" result="effect1_dropShadow_325_391"/>
<feBlend mode="normal" in="SourceGraphic" in2="effect1_dropShadow_325_391" result="shape"/>
</filter>
<filter id="filter1_d_325_391" x="34.0401" y="15" width="95.0149" height="95.0081" filterUnits="userSpaceOnUse" color-interpolation-filters="sRGB">
<feFlood flood-opacity="0" result="BackgroundImageFix"/>
<feColorMatrix in="SourceAlpha" type="matrix" values="0 0 0 0 0 0 0 0 0 0 0 0 0 0 0 0 0 0 127 0" result="hardAlpha"/>
<feOffset dx="0.2" dy="1"/>
<feGaussianBlur stdDeviation="1"/>
<feComposite in2="hardAlpha" operator="out"/>
<feColorMatrix type="matrix" values="0 0 0 0 0.415686 0 0 0 0 0.258824 0 0 0 0 0.760784 0 0 0 0.24 0"/>
<feBlend mode="normal" in2="BackgroundImageFix" result="effect1_dropShadow_325_391"/>
<feBlend mode="normal" in="SourceGraphic" in2="effect1_dropShadow_325_391" result="shape"/>
</filter>
<filter id="filter2_d_325_391" x="167.365" y="77.3579" width="59.382" height="41.5088" filterUnits="userSpaceOnUse" color-interpolation-filters="sRGB">
<feFlood flood-opacity="0" result="BackgroundImageFix"/>
<feColorMatrix in="SourceAlpha" type="matrix" values="0 0 0 0 0 0 0 0 0 0 0 0 0 0 0 0 0 0 127 0" result="hardAlpha"/>
<feOffset dx="0.2" dy="1"/>
<feGaussianBlur stdDeviation="1"/>
<feComposite in2="hardAlpha" operator="out"/>
<feColorMatrix type="matrix" values="0 0 0 0 0.415686 0 0 0 0 0.258824 0 0 0 0 0.760784 0 0 0 0.24 0"/>
<feBlend mode="normal" in2="BackgroundImageFix" result="effect1_dropShadow_325_391"/>
<feBlend mode="normal" in="SourceGraphic" in2="effect1_dropShadow_325_391" result="shape"/>
</filter>
<filter id="filter3_d_325_391" x="167.365" y="120.328" width="59.382" height="41.5088" filterUnits="userSpaceOnUse" color-interpolation-filters="sRGB">
<feFlood flood-opacity="0" result="BackgroundImageFix"/>
<feColorMatrix in="SourceAlpha" type="matrix" values="0 0 0 0 0 0 0 0 0 0 0 0 0 0 0 0 0 0 127 0" result="hardAlpha"/>
<feOffset dx="0.2" dy="1"/>
<feGaussianBlur stdDeviation="1"/>
<feComposite in2="hardAlpha" operator="out"/>
<feColorMatrix type="matrix" values="0 0 0 0 0.415686 0 0 0 0 0.258824 0 0 0 0 0.760784 0 0 0 0.24 0"/>
<feBlend mode="normal" in2="BackgroundImageFix" result="effect1_dropShadow_325_391"/>
<feBlend mode="normal" in="SourceGraphic" in2="effect1_dropShadow_325_391" result="shape"/>
</filter>
<filter id="filter4_d_325_391" x="210.148" y="136.404" width="46.8713" height="47.7522" filterUnits="userSpaceOnUse" color-interpolation-filters="sRGB">
<feFlood flood-opacity="0" result="BackgroundImageFix"/>
<feColorMatrix in="SourceAlpha" type="matrix" values="0 0 0 0 0 0 0 0 0 0 0 0 0 0 0 0 0 0 127 0" result="hardAlpha"/>
<feOffset dx="0.2" dy="1"/>
<feGaussianBlur stdDeviation="1"/>
<feComposite in2="hardAlpha" operator="out"/>
<feColorMatrix type="matrix" values="0 0 0 0 0.415686 0 0 0 0 0.258824 0 0 0 0 0.760784 0 0 0 0.24 0"/>
<feBlend mode="normal" in2="BackgroundImageFix" result="effect1_dropShadow_325_391"/>
<feBlend mode="normal" in="SourceGraphic" in2="effect1_dropShadow_325_391" result="shape"/>
</filter>
<filter id="filter5_d_325_391" x="139.318" y="95.728" width="46.8971" height="47.5437" filterUnits="userSpaceOnUse" color-interpolation-filters="sRGB">
<feFlood flood-opacity="0" result="BackgroundImageFix"/>
<feColorMatrix in="SourceAlpha" type="matrix" values="0 0 0 0 0 0 0 0 0 0 0 0 0 0 0 0 0 0 127 0" result="hardAlpha"/>
<feOffset dx="0.2" dy="1"/>
<feGaussianBlur stdDeviation="1"/>
<feComposite in2="hardAlpha" operator="out"/>
<feColorMatrix type="matrix" values="0 0 0 0 0.415686 0 0 0 0 0.258824 0 0 0 0 0.760784 0 0 0 0.24 0"/>
<feBlend mode="normal" in2="BackgroundImageFix" result="effect1_dropShadow_325_391"/>
<feBlend mode="normal" in="SourceGraphic" in2="effect1_dropShadow_325_391" result="shape"/>
</filter>
<filter id="filter6_d_325_391" x="210.148" y="55.0264" width="46.8713" height="47.5701" filterUnits="userSpaceOnUse" color-interpolation-filters="sRGB">
<feFlood flood-opacity="0" result="BackgroundImageFix"/>
<feColorMatrix in="SourceAlpha" type="matrix" values="0 0 0 0 0 0 0 0 0 0 0 0 0 0 0 0 0 0 127 0" result="hardAlpha"/>
<feOffset dx="0.2" dy="1"/>
<feGaussianBlur stdDeviation="1"/>
<feComposite in2="hardAlpha" operator="out"/>
<feColorMatrix type="matrix" values="0 0 0 0 0.415686 0 0 0 0 0.258824 0 0 0 0 0.760784 0 0 0 0.24 0"/>
<feBlend mode="normal" in2="BackgroundImageFix" result="effect1_dropShadow_325_391"/>
<feBlend mode="normal" in="SourceGraphic" in2="effect1_dropShadow_325_391" result="shape"/>
</filter>
<linearGradient id="paint0_linear_325_391" x1="81.328" y1="126.813" x2="81.328" y2="236.206" gradientUnits="userSpaceOnUse">
<stop stop-color="#6A42C2"/>
<stop offset="1" stop-color="#29194D"/>
</linearGradient>
<linearGradient id="paint1_linear_325_391" x1="81.3476" y1="16" x2="81.3476" y2="107.008" gradientUnits="userSpaceOnUse">
<stop stop-color="#6A42C2"/>
<stop offset="1" stop-color="#29194D"/>
</linearGradient>
<linearGradient id="paint2_linear_325_391" x1="196.856" y1="78.3579" x2="196.856" y2="115.867" gradientUnits="userSpaceOnUse">
<stop stop-color="#6A42C2"/>
<stop offset="1" stop-color="#29194D"/>
</linearGradient>
<linearGradient id="paint3_linear_325_391" x1="196.856" y1="121.328" x2="196.856" y2="158.837" gradientUnits="userSpaceOnUse">
<stop stop-color="#6A42C2"/>
<stop offset="1" stop-color="#29194D"/>
</linearGradient>
<linearGradient id="paint4_linear_325_391" x1="233.383" y1="137.404" x2="233.383" y2="181.156" gradientUnits="userSpaceOnUse">
<stop stop-color="#6A42C2"/>
<stop offset="1" stop-color="#29194D"/>
</linearGradient>
<linearGradient id="paint5_linear_325_391" x1="162.567" y1="96.728" x2="162.567" y2="140.272" gradientUnits="userSpaceOnUse">
<stop stop-color="#6A42C2"/>
<stop offset="1" stop-color="#29194D"/>
</linearGradient>
<linearGradient id="paint6_linear_325_391" x1="233.383" y1="56.0264" x2="233.383" y2="99.5964" gradientUnits="userSpaceOnUse">
<stop stop-color="#6A42C2"/>
<stop offset="1" stop-color="#29194D"/>
</linearGradient>
<clipPath id="clip0_325_391">
<rect width="256" height="256" fill="white"/>
</clipPath>
</defs>
</svg>