<svg width="241" height="225" viewBox="0 0 241 225" fill="none" xmlns="http://www.w3.org/2000/svg">
<g filter="url(#filter0_d_62_1783)">
<path d="M76.4815 221.206C49.7 220.811 26.7031 212.854 6.56378 196.796C4.21546 194.919 2.64232 192.639 2.56632 189.599C1.83674 159.511 13.9051 136.119 40.1395 121.14C83.4429 96.4183 139.081 123.337 147.015 172.537C147.896 178.024 147.881 183.663 148.117 189.234C148.238 192.152 146.893 194.546 144.628 196.378C127.445 210.27 107.884 218.402 85.8824 220.568C82.4017 220.917 78.8982 221.047 76.4815 221.206ZM75.0983 202.967C94.0749 202.754 111.243 197.472 126.906 187.053C129.535 185.305 130.136 183.397 129.862 180.502C127.392 154.093 108.02 133.969 81.6265 130.526C50.9235 126.521 22.0977 150.833 20.7449 181.824C20.6537 183.952 21.2237 185.244 23.0248 186.483C38.7867 197.305 56.2206 202.716 75.0983 202.967Z" fill="url(#paint0_linear_62_1783)"/>
</g>
<g filter="url(#filter1_d_62_1783)">
<path d="M29.84 46.3178C29.9084 21.2234 50.4733 0.886481 75.6741 1.00048C100.624 1.11447 120.923 21.6414 120.855 46.6826C120.786 71.777 100.198 92.1291 75.0205 92.0075C50.0781 91.8935 29.7792 71.3666 29.84 46.3178ZM48.049 46.5914C48.0794 61.5933 60.4138 73.8441 75.4309 73.8061C90.4328 73.7681 102.676 61.4489 102.646 46.4242C102.608 31.4223 90.2884 19.1791 75.2637 19.2095C60.2618 19.2475 48.0186 31.5667 48.049 46.5914Z" fill="url(#paint1_linear_62_1783)"/>
</g>
<g filter="url(#filter2_d_62_1783)">
<path d="M189.184 153.048C180.672 153.048 173.205 152.189 166.784 150.472C160.363 148.829 155.024 145.992 150.768 141.96C146.512 138.003 143.301 132.664 141.136 125.944C139.045 119.224 138 110.861 138 100.856C138 91.5973 139.12 83.6827 141.36 77.112C143.675 70.4667 147.035 65.0907 151.44 60.984C155.845 56.8773 161.221 53.8533 167.568 51.912C173.915 49.9707 181.157 49 189.296 49C200.645 49 209.904 50.7173 217.072 54.152C224.24 57.512 229.504 62.664 232.864 69.608C236.299 76.552 238.016 85.288 238.016 95.816V97.272C238.016 102.947 237.717 107.763 237.12 111.72C236.523 115.603 235.664 118.776 234.544 121.24C233.424 123.704 232.043 125.645 230.4 127.064C228.757 128.408 226.853 129.341 224.688 129.864C222.523 130.387 220.171 130.648 217.632 130.648C214.869 130.648 212.517 130.312 210.576 129.64C208.709 128.893 207.216 128.035 206.096 127.064C204.976 126.019 204.192 125.011 203.744 124.04C202.251 124.936 200.384 125.907 198.144 126.952C195.979 127.997 193.701 128.856 191.312 129.528C188.997 130.2 186.795 130.536 184.704 130.536C182.613 130.536 180.56 130.349 178.544 129.976C176.528 129.528 174.661 128.744 172.944 127.624C171.301 126.429 169.845 124.787 168.576 122.696C167.307 120.605 166.299 117.917 165.552 114.632C164.88 111.347 164.544 107.315 164.544 102.536C164.544 96.1893 165.216 90.888 166.56 86.632C167.904 82.3013 170.219 79.0533 173.504 76.888C176.789 74.648 181.269 73.528 186.944 73.528C188.96 73.528 191.2 73.864 193.664 74.536C196.203 75.208 198.219 75.88 199.712 76.552V74.648H210.24V96.04C210.24 101.939 210.315 106.643 210.464 110.152C210.613 113.587 210.912 116.163 211.36 117.88C211.883 119.597 212.704 120.755 213.824 121.352C214.944 121.875 216.4 122.136 218.192 122.136C219.76 122.136 221.141 121.875 222.336 121.352C223.605 120.829 224.651 119.784 225.472 118.216C226.368 116.573 227.04 114.072 227.488 110.712C227.936 107.352 228.16 102.872 228.16 97.272V95.704C228.16 88.984 227.413 83.2347 225.92 78.456C224.501 73.6773 222.224 69.7573 219.088 66.696C216.027 63.6347 212.032 61.3947 207.104 59.976C202.251 58.4827 196.315 57.736 189.296 57.736C182.352 57.736 176.267 58.5573 171.04 60.2C165.888 61.768 161.557 64.3067 158.048 67.816C154.539 71.2507 151.925 75.6933 150.208 81.144C148.491 86.52 147.632 93.0907 147.632 100.856C147.632 109.069 148.416 115.939 149.984 121.464C151.627 126.989 154.128 131.432 157.488 134.792C160.848 138.227 165.141 140.653 170.368 142.072C175.669 143.565 181.941 144.312 189.184 144.312C190.379 144.312 191.909 144.237 193.776 144.088C195.717 144.013 197.696 143.901 199.712 143.752C201.803 143.603 203.632 143.453 205.2 143.304L205.536 152.04C204.043 152.189 202.288 152.339 200.272 152.488C198.256 152.637 196.24 152.749 194.224 152.824C192.283 152.973 190.603 153.048 189.184 153.048ZM185.712 121.576C187.131 121.576 188.736 121.352 190.528 120.904C192.395 120.381 194.224 119.784 196.016 119.112C197.808 118.365 199.376 117.656 200.72 116.984C200.571 115.416 200.384 113.661 200.16 111.72C200.011 109.704 199.899 107.613 199.824 105.448C199.749 103.208 199.712 101.043 199.712 98.952V84.616C198.443 84.168 196.763 83.72 194.672 83.272C192.656 82.824 190.864 82.6 189.296 82.6C185.413 82.6 182.427 83.3467 180.336 84.84C178.32 86.2587 176.901 88.4613 176.08 91.448C175.333 94.4347 174.96 98.1307 174.96 102.536C174.96 106.568 175.259 109.816 175.856 112.28C176.528 114.744 177.349 116.685 178.32 118.104C179.365 119.448 180.523 120.381 181.792 120.904C183.061 121.352 184.368 121.576 185.712 121.576Z" fill="url(#paint2_linear_62_1783)"/>
</g>
<defs>
<filter id="filter0_d_62_1783" x="0.735156" y="110.813" width="149.589" height="113.393" filterUnits="userSpaceOnUse" color-interpolation-filters="sRGB">
<feFlood flood-opacity="0" result="BackgroundImageFix"/>
<feColorMatrix in="SourceAlpha" type="matrix" values="0 0 0 0 0 0 0 0 0 0 0 0 0 0 0 0 0 0 127 0" result="hardAlpha"/>
<feOffset dx="0.2" dy="1"/>
<feGaussianBlur stdDeviation="1"/>
<feComposite in2="hardAlpha" operator="out"/>
<feColorMatrix type="matrix" values="0 0 0 0 0.415686 0 0 0 0 0.258824 0 0 0 0 0.760784 0 0 0 0.24 0"/>
<feBlend mode="normal" in2="BackgroundImageFix" result="effect1_dropShadow_62_1783"/>
<feBlend mode="normal" in="SourceGraphic" in2="effect1_dropShadow_62_1783" result="shape"/>
</filter>
<filter id="filter1_d_62_1783" x="28.0398" y="0" width="95.0149" height="95.0081" filterUnits="userSpaceOnUse" color-interpolation-filters="sRGB">
<feFlood flood-opacity="0" result="BackgroundImageFix"/>
<feColorMatrix in="SourceAlpha" type="matrix" values="0 0 0 0 0 0 0 0 0 0 0 0 0 0 0 0 0 0 127 0" result="hardAlpha"/>
<feOffset dx="0.2" dy="1"/>
<feGaussianBlur stdDeviation="1"/>
<feComposite in2="hardAlpha" operator="out"/>
<feColorMatrix type="matrix" values="0 0 0 0 0.415686 0 0 0 0 0.258824 0 0 0 0 0.760784 0 0 0 0.24 0"/>
<feBlend mode="normal" in2="BackgroundImageFix" result="effect1_dropShadow_62_1783"/>
<feBlend mode="normal" in="SourceGraphic" in2="effect1_dropShadow_62_1783" result="shape"/>
</filter>
<filter id="filter2_d_62_1783" x="136.2" y="48" width="104.016" height="108.048" filterUnits="userSpaceOnUse" color-interpolation-filters="sRGB">
<feFlood flood-opacity="0" result="BackgroundImageFix"/>
<feColorMatrix in="SourceAlpha" type="matrix" values="0 0 0 0 0 0 0 0 0 0 0 0 0 0 0 0 0 0 127 0" result="hardAlpha"/>
<feOffset dx="0.2" dy="1"/>
<feGaussianBlur stdDeviation="1"/>
<feComposite in2="hardAlpha" operator="out"/>
<feColorMatrix type="matrix" values="0 0 0 0 0.415686 0 0 0 0 0.258824 0 0 0 0 0.760784 0 0 0 0.24 0"/>
<feBlend mode="normal" in2="BackgroundImageFix" result="effect1_dropShadow_62_1783"/>
<feBlend mode="normal" in="SourceGraphic" in2="effect1_dropShadow_62_1783" result="shape"/>
</filter>
<linearGradient id="paint0_linear_62_1783" x1="75.3298" y1="111.813" x2="75.3298" y2="221.206" gradientUnits="userSpaceOnUse">
<stop stop-color="#6A42C2"/>
<stop offset="1" stop-color="#29194D"/>
</linearGradient>
<linearGradient id="paint1_linear_62_1783" x1="75.3473" y1="1" x2="75.3473" y2="92.008" gradientUnits="userSpaceOnUse">
<stop stop-color="#6A42C2"/>
<stop offset="1" stop-color="#29194D"/>
</linearGradient>
<linearGradient id="paint2_linear_62_1783" x1="188.008" y1="49" x2="188.008" y2="153.048" gradientUnits="userSpaceOnUse">
<stop stop-color="#6A42C2"/>
<stop offset="1" stop-color="#29194D"/>
</linearGradient>
</defs>
</svg>