<svg width="36" height="36" viewBox="0 0 36 36" fill="none" xmlns="http://www.w3.org/2000/svg">
<path fill-rule="evenodd" clip-rule="evenodd" d="M28.9943 5.05771C26.0845 2.14315 22.2078 0.538026 18.0823 0.533333C9.58271 0.533333 2.66005 7.45131 2.66005 15.9556C2.66005 18.6731 3.36874 21.3295 4.72042 23.6668L2.53333 31.6595L10.7091 29.5147C12.9619 30.7443 15.4963 31.392 18.0776 31.392H18.0823C26.582 31.392 33.4999 24.474 33.5046 15.9697C33.5093 11.849 31.9089 7.97227 28.9943 5.05771ZM18.087 28.7872H18.0823C15.7826 28.7872 16.2332 30.502 14.2667 29.3333L11.0893 26.7221L14.8 29.3333L18.087 28.7872L21.2 29.5147L23.8667 27.4077C26.8 26.1333 32.6667 20.0265 32.6667 17.6C31.2288 10.7017 33.1843 12.8 27.1546 6.89749C30.5807 6.89749 35.3333 13.8667 27.1546 6.89749C30.2559 9.33333 32.6714 14.1786 32.6667 17.6C32.6667 24.6729 25.1505 28.7872 18.087 28.7872Z" fill="#2EB843"/>
<g filter="url(#filter0_d_74_445)">
<path fill-rule="evenodd" clip-rule="evenodd" d="M28.9943 5.05771C26.0845 2.14315 22.2078 0.538026 18.0823 0.533333C9.58271 0.533333 2.66005 7.45131 2.66005 15.9556C2.66005 18.6731 3.36874 21.3295 4.72042 23.6668L2.53333 31.6595L10.7091 29.5147C12.9619 30.7443 15.4963 31.392 18.0776 31.392H18.0823C26.582 31.392 33.4999 24.474 33.5046 15.9697C33.5093 11.849 31.9089 7.97227 28.9943 5.05771ZM18.087 28.7872H18.0823C15.7826 28.7872 13.5251 28.1677 11.5586 26.999L11.0893 26.7221L6.23637 27.994L7.53173 23.2631L7.22666 22.7797C5.94538 20.7381 5.26485 18.3821 5.26485 15.9556C5.26954 8.88746 11.0189 3.13813 18.0917 3.13813C21.5179 3.13813 24.7328 4.47573 27.1546 6.89749C29.5763 9.31925 30.9092 12.5436 30.9045 15.965C30.9045 23.0379 25.1505 28.7872 18.087 28.7872Z" fill="white"/>
</g>
<g clip-path="url(#clip0_74_445)">
<path d="M25.5699 5.86804C25.3544 5.84597 24.9188 6.0976 24.7933 6.14958C24.0495 6.45865 23.3154 6.79306 22.5908 7.14887C21.141 7.86093 19.7302 8.65796 18.3512 9.50916C16.4944 10.6554 14.6719 11.9203 13.2296 13.5948C12.4291 14.5242 11.7564 15.5846 11.3006 16.7429C11.069 17.3316 10.8943 17.9453 10.7926 18.5733C10.7277 18.9746 10.6348 19.3653 10.6673 19.7762C10.6957 20.1385 10.8164 20.502 11.0556 20.7663C11.1336 20.8526 11.2265 20.9292 11.3359 20.9613C11.5292 21.0181 11.7414 20.9222 11.8782 20.7689C12.015 20.6154 12.0895 20.4131 12.1473 20.2124C12.1851 20.0811 12.2174 19.9455 12.2109 19.8085C12.2044 19.6716 12.154 19.5315 12.0514 19.4459C11.6987 19.1508 11.356 19.0805 11.2849 18.5298C11.2414 18.1935 11.325 17.8532 11.4336 17.5332C12.1333 15.4699 13.8235 13.9609 15.5352 12.6971C18.065 10.8289 20.802 9.26693 23.6742 8.05227C24.1884 7.83472 24.7711 7.61608 25.1644 7.18797C25.3425 6.99401 25.8044 6.21598 25.6795 5.93706C25.6603 5.89425 25.6214 5.87328 25.5699 5.86804Z" fill="white"/>
<path d="M25.1134 13.6529C24.9052 13.761 24.6213 14.0257 24.5052 14.0532C24.3272 14.0956 24.1409 14.0915 23.9639 14.1384C23.6941 14.2101 23.4671 14.3936 23.23 14.546C22.9662 14.7155 22.6756 14.8516 22.3674 14.883C22.0592 14.9145 21.7305 14.8302 21.506 14.6076C21.1238 14.2286 21.1428 13.5952 21.2167 13.0502C21.3247 12.2521 21.5364 11.4942 21.7042 10.7111C21.7477 10.5082 21.7703 10.2896 21.7498 10.0803C21.7406 9.98598 21.7356 9.91259 21.6709 9.85296C21.4596 10.0607 21.356 10.5722 21.2541 10.8621C21.1263 11.2262 21.0094 11.5942 20.9035 11.966C20.6867 12.727 20.5164 13.5024 20.3943 14.2861C20.3397 14.6371 20.2945 14.9938 20.3281 15.3476C20.3618 15.7015 20.4809 16.0564 20.7167 16.3131C21.0142 16.6368 21.4891 16.7678 21.9017 16.6422C22.4638 16.4712 22.8174 15.9105 23.2591 15.5088C23.3375 15.4374 23.4217 15.3695 23.5191 15.3312C23.7187 15.2528 23.9439 15.3092 24.1529 15.2659C24.4037 15.214 24.6075 15.0239 24.7713 14.8188C24.9121 14.6428 25.4538 13.9087 25.3398 13.6605C25.3046 13.5836 25.2186 13.5983 25.1134 13.6529Z" fill="white"/>
<path d="M22.5733 13.6391C22.7805 13.6391 22.9484 13.4638 22.9484 13.2475C22.9484 13.0312 22.7805 12.8559 22.5733 12.8559C22.3661 12.8559 22.1982 13.0312 22.1982 13.2475C22.1982 13.4638 22.3661 13.6391 22.5733 13.6391Z" fill="white"/>
<path d="M15.6745 10.0637C16.0467 10.0637 16.3484 9.74875 16.3484 9.3602C16.3484 8.97164 16.0467 8.65665 15.6745 8.65665C15.3023 8.65665 15.0006 8.97164 15.0006 9.3602C15.0006 9.74875 15.3023 10.0637 15.6745 10.0637Z" fill="white"/>
<path d="M24.382 16.6084C24.5891 16.6084 24.7571 16.433 24.7571 16.2167C24.7571 16.0004 24.5891 15.8251 24.382 15.8251C24.1748 15.8251 24.0068 16.0004 24.0068 16.2167C24.0068 16.433 24.1748 16.6084 24.382 16.6084Z" fill="white"/>
<path d="M26.8821 11.0641C26.7179 10.894 26.5235 10.7553 26.3108 10.66C25.9823 10.5128 25.5664 10.4825 25.2971 10.7275C25.0592 10.9442 25.0059 11.3216 25.09 11.6394C25.2011 12.0593 25.5128 12.2908 25.7101 12.6455C25.8961 12.9801 25.845 13.3458 25.8337 13.7164C25.8116 14.4442 25.8074 15.2847 25.5881 15.9846C25.491 16.2943 25.1113 17.4089 25.1113 17.4089L24.4535 18.7959L23.6895 19.9509C23.6895 19.9509 22.5789 21.2936 22.3291 21.3342L21.6186 21.8398L20.6449 22.3815L19.7846 22.8169C19.7846 22.8169 19.014 23.1043 19.0128 23.1047C16.8313 23.9184 14.0669 23.777 11.9506 22.8228C10.6145 22.2203 9.42826 21.2055 8.65813 19.9103C8.28551 19.2834 7.97377 18.5672 7.90222 17.8305C7.8428 17.2193 7.86519 16.5645 7.65995 15.9795L7.38608 15.1856C7.38608 15.1856 7.27938 14.8496 7.19966 14.8138C7.12058 14.778 7.13125 14.7588 7.07413 14.9189C7.07413 14.9189 6.8896 15.6261 6.84901 15.9265C6.80884 16.2274 6.76951 17.2457 6.83479 17.4735C6.83479 17.4735 7.05551 18.7841 7.24004 18.9809C7.24004 18.9809 7.58818 20.0916 7.94825 20.4389C7.94825 20.4389 9.07385 22.067 9.25043 22.0843C9.25043 22.0843 10.6286 23.2609 11.0508 23.4097C11.0508 23.4097 12.7291 24.1916 13.1072 24.2899C13.1072 24.2899 14.7422 24.6328 15.1368 24.6518L17.3273 24.5878L19.4038 24.1497L21.3575 23.3804L22.9457 22.3984L23.498 21.9716C23.498 21.9716 24.8443 20.6014 24.7966 20.4786C24.7966 20.4786 25.7955 19.079 25.6833 18.9671C25.6833 18.9671 26.3624 17.4508 26.465 17.047L26.839 15.4542L26.8815 14.1679C26.8876 13.7566 26.9029 13.3429 26.8972 12.9325C27.1704 12.8491 27.3443 12.5771 27.3771 12.2895C27.4052 12.0455 27.3416 11.798 27.2374 11.5776C27.1474 11.3872 27.0263 11.2135 26.8821 11.0641ZM25.7408 11.3118C25.9057 11.1192 26.2551 11.1635 26.5219 11.4116C26.7886 11.6598 26.8713 12.0171 26.7064 12.2104C26.5419 12.4031 26.1921 12.3583 25.9258 12.1102C25.659 11.8622 25.5764 11.5045 25.7408 11.3118Z" fill="white"/>
<path d="M28.1808 15.2651C27.8514 14.9208 27.3987 14.8354 27.1704 15.0737C26.9422 15.312 27.0238 15.7847 27.3537 16.1289C27.3841 16.1606 27.4159 16.1905 27.4485 16.2181C27.7996 16.5142 26.8401 18.4536 26.6953 18.7793C26.267 19.7432 25.7298 20.6586 25.0567 21.4583C23.8947 22.8391 22.3507 23.8454 20.6847 24.4391C16.6813 25.8661 11.9 25.2272 8.75981 22.1227C8.66231 22.0262 8.57674 21.9222 8.47046 21.8942C9.07991 23.0849 10.6106 24.0713 11.7336 24.6553C12.4502 25.028 13.2099 25.311 13.9913 25.4932C14.7613 25.6727 15.5119 25.6459 16.2839 25.7304C16.9009 25.7979 17.4943 26.0248 18.0535 26.2963C18.8498 26.6827 19.6049 27.1676 20.433 27.4726C21.3125 27.7965 21.9693 27.1572 22.6584 26.6474C23.4614 26.0535 24.2171 25.3818 24.8525 24.5948C25.8936 23.3055 26.3325 21.9049 26.6064 20.2755C26.6106 20.2508 26.8537 19.8893 26.9014 19.7923C27.0662 19.4577 27.2163 19.1152 27.351 18.7662C27.5397 18.2769 27.6981 17.7748 27.8249 17.2643C27.8694 17.0848 27.8766 16.7062 27.9807 16.5621C28.0803 16.424 28.2477 16.4426 28.3647 16.3205C28.5927 16.082 28.5105 15.6093 28.1808 15.2651ZM28.0718 15.9802C27.969 16.1005 27.7508 16.0726 27.5847 15.9177C27.4179 15.7629 27.3667 15.5398 27.4694 15.4195C27.5721 15.2991 27.7904 15.3271 27.9565 15.482C28.1226 15.6368 28.1745 15.8598 28.0718 15.9802Z" fill="white"/>
<path d="M15.1717 23.0908C14.0478 23.0619 12.9588 22.6723 11.9414 22.1732C11.7002 22.0546 11.461 21.93 11.2336 21.7846C10.529 21.3342 9.96114 20.7049 9.4565 20.0306C9.3385 19.8729 9.22008 19.7146 9.1207 19.5433C8.96902 19.2821 8.86295 18.992 8.80939 18.6917C8.88638 18.8092 8.96274 18.9272 9.03806 19.0455L9.56404 19.8793L9.56216 19.8817C9.86594 20.3117 10.2486 20.6863 10.6386 21.0297C11.85 22.0963 13.3863 22.7138 14.9489 22.9228C15.0165 22.9317 15.0973 22.9326 15.1594 22.9625C15.2213 22.9918 15.3107 23.094 15.1717 23.0908Z" fill="white"/>
</g>
<defs>
<filter id="filter0_d_74_445" x="0.533325" y="0.533333" width="34.9713" height="35.1262" filterUnits="userSpaceOnUse" color-interpolation-filters="sRGB">
<feFlood flood-opacity="0" result="BackgroundImageFix"/>
<feColorMatrix in="SourceAlpha" type="matrix" values="0 0 0 0 0 0 0 0 0 0 0 0 0 0 0 0 0 0 127 0" result="hardAlpha"/>
<feOffset dy="2"/>
<feGaussianBlur stdDeviation="1"/>
<feComposite in2="hardAlpha" operator="out"/>
<feColorMatrix type="matrix" values="0 0 0 0 0.1616 0 0 0 0 0.0976 0 0 0 0 0.3024 0 0 0 0.15 0"/>
<feBlend mode="normal" in2="BackgroundImageFix" result="effect1_dropShadow_74_445"/>
<feBlend mode="normal" in="SourceGraphic" in2="effect1_dropShadow_74_445" result="shape"/>
</filter>
<clipPath id="clip0_74_445">
<rect width="21.8667" height="21.8667" fill="white" transform="translate(6.79999 5.86667)"/>
</clipPath>
</defs>
</svg>