<svg width="105" height="104" viewBox="0 0 105 104" fill="none" xmlns="http://www.w3.org/2000/svg">
<g filter="url(#filter0_d_94_1010)">
<rect x="4" y="3" width="96" height="96" rx="48" fill="#FCFAFF"/>
<g clip-path="url(#clip0_94_1010)">
<path d="M38.3847 44.9678C38.3847 42.6767 38.3847 40.5071 38.3847 38.3173C38.4049 31.7276 42.8251 26.2937 49.2526 24.9352C56.8561 23.3334 64.4596 28.7065 65.3112 36.4317C65.595 38.9053 65.4328 41.4398 65.4734 43.954C65.4734 44.2582 65.4734 44.5623 65.4734 44.9678C66.1019 44.9678 66.6697 44.9678 67.2374 44.9678C70.8668 44.9881 73.3607 47.4618 73.3607 51.0709C73.3607 56.4238 73.3607 61.7766 73.3607 67.1092C73.3607 70.7589 70.9073 73.2123 67.2577 73.2326C57.0386 73.2528 46.8195 73.2528 36.6004 73.2326C32.9507 73.2326 30.4973 70.7589 30.4973 67.1092C30.4973 61.7564 30.4973 56.4035 30.4973 51.0709C30.4973 47.4415 32.9913 44.9881 36.6207 44.9678C37.1884 44.9678 37.7358 44.9678 38.3847 44.9678ZM52.0101 48.3945C46.9209 48.3945 41.8113 48.3945 36.722 48.3945C34.8364 48.3945 33.9442 49.2866 33.9442 51.1926C33.9442 56.4643 33.9442 61.7361 33.9442 67.0078C33.9442 68.9341 34.8566 69.8262 36.8031 69.8262C46.9006 69.8262 56.9777 69.8262 67.0752 69.8262C69.0217 69.8262 69.9341 68.9341 69.9341 67.0078C69.9341 61.7361 69.9341 56.4643 69.9341 51.1926C69.9341 49.2866 69.0419 48.3945 67.1563 48.3945C62.0873 48.3945 57.0386 48.3945 52.0101 48.3945ZM61.9859 44.9273C61.9859 42.3522 62.1076 39.838 61.9656 37.3441C61.6818 32.3156 57.5657 28.4226 52.3751 28.078C47.5494 27.7535 42.8048 31.3018 42.0749 36.1478C41.6491 38.9864 41.8924 41.9062 41.8316 44.7854C41.8316 44.8259 41.8924 44.8665 41.933 44.9273C48.5835 44.9273 55.2543 44.9273 61.9859 44.9273Z" fill="#6A42C2"/>
<path d="M29.4226 79.0721C29.4226 80.7753 29.4429 82.3365 29.4226 83.8775C29.4226 84.6683 28.936 85.2968 28.2669 85.4793C27.5573 85.6821 26.8882 85.5401 26.4218 84.9318C26.219 84.648 26.0568 84.2425 26.0568 83.8978C26.0366 80.9983 26.0366 78.1191 26.0366 75.2196C26.0366 74.4492 26.4218 73.922 27.1315 73.6381C27.8411 73.3543 28.4697 73.557 29.0171 74.0842C31.1664 76.1929 33.5387 77.9975 36.1745 79.437C42.2776 82.7623 48.7659 84.0802 55.68 83.2692C68.9405 81.7282 79.8085 72.4418 83.3365 59.5869C85.4857 51.7198 84.7152 44.0757 81.1669 36.7358C81.0453 36.4925 80.9034 36.2492 80.802 35.9856C80.3965 35.0327 80.7412 34.0797 81.613 33.6742C82.4646 33.2889 83.4379 33.5728 83.8637 34.5055C84.6747 36.31 85.5466 38.0943 86.1548 39.9597C92.2174 58.8164 82.201 78.8288 63.4052 85.0332C51.4829 88.9262 40.3717 86.9797 30.2134 79.6398C30.0107 79.4776 29.7876 79.3154 29.4226 79.0721Z" fill="#6A42C2"/>
<path d="M74.4353 22.8265C74.4353 21.2247 74.4151 19.6837 74.4353 18.1428C74.4556 17.3317 74.9625 16.7032 75.6722 16.5004C76.4021 16.2977 77.2334 16.6018 77.5781 17.2709C77.7403 17.575 77.8214 17.94 77.8214 18.2847C77.8417 21.0625 77.8214 23.8606 77.8417 26.6587C77.8417 27.4494 77.5578 28.0374 76.8076 28.3619C76.0371 28.6863 75.3883 28.4632 74.8003 27.8955C71.4548 24.6311 67.6226 22.1574 63.2227 20.5151C44.6905 13.6415 24.2117 24.8744 20.116 44.1974C18.5345 51.5981 19.4874 58.6947 22.8127 65.4872C22.8938 65.6697 22.9952 65.8521 23.0763 66.0346C23.4818 66.9876 23.1574 67.9406 22.2855 68.3461C21.4339 68.7516 20.4404 68.4475 20.0349 67.535C19.163 65.5683 18.2101 63.6218 17.6018 61.5739C11.8434 42.5145 22.103 22.8062 41.0814 16.8046C52.7198 13.1346 63.5877 15.1419 73.5026 22.2791C73.7257 22.4413 73.9487 22.6238 74.1718 22.786C74.2123 22.8062 74.2731 22.8062 74.4353 22.8265Z" fill="#6A42C2"/>
<path d="M40.98 55.6938C42.8859 55.6938 44.4066 57.2145 44.3863 59.1205C44.3661 60.9859 42.8657 62.5066 41.0003 62.5269C39.1146 62.5471 37.5533 61.0062 37.5533 59.1205C37.5533 57.2145 39.074 55.6938 40.98 55.6938Z" fill="#6A42C2"/>
<path d="M51.929 55.6938C53.835 55.6938 55.3557 57.2145 55.3354 59.1205C55.3354 61.0062 53.7741 62.5471 51.8885 62.5269C50.0231 62.5066 48.5227 60.9859 48.5024 59.1205C48.5024 57.2145 50.0028 55.6938 51.929 55.6938Z" fill="#6A42C2"/>
<path d="M62.9186 55.6938C64.8245 55.7141 66.325 57.2551 66.3047 59.161C66.2641 61.0264 64.7637 62.5269 62.8983 62.5269C61.0127 62.5269 59.4717 60.9859 59.4717 59.0799C59.4717 57.1943 60.9924 55.6938 62.9186 55.6938Z" fill="#6A42C2"/>
</g>
</g>
<defs>
<filter id="filter0_d_94_1010" x="0.5" y="0" width="104" height="104" filterUnits="userSpaceOnUse" color-interpolation-filters="sRGB">
<feFlood flood-opacity="0" result="BackgroundImageFix"/>
<feColorMatrix in="SourceAlpha" type="matrix" values="0 0 0 0 0 0 0 0 0 0 0 0 0 0 0 0 0 0 127 0" result="hardAlpha"/>
<feOffset dx="0.5" dy="1"/>
<feGaussianBlur stdDeviation="2"/>
<feComposite in2="hardAlpha" operator="out"/>
<feColorMatrix type="matrix" values="0 0 0 0 0.415686 0 0 0 0 0.258824 0 0 0 0 0.760784 0 0 0 0.24 0"/>
<feBlend mode="normal" in2="BackgroundImageFix" result="effect1_dropShadow_94_1010"/>
<feBlend mode="normal" in="SourceGraphic" in2="effect1_dropShadow_94_1010" result="shape"/>
</filter>
<clipPath id="clip0_94_1010">
<rect width="71.8783" height="72" fill="white" transform="translate(16 15)"/>
</clipPath>
</defs>
</svg>