<svg width="40" height="40" viewBox="0 0 40 40" fill="none" xmlns="http://www.w3.org/2000/svg">
<g filter="url(#filter0_d_90_938)">
<path d="M4 6C4 3.79086 5.79086 2 8 2H32C34.2091 2 36 3.79086 36 6V30C36 32.2091 34.2091 34 32 34H8C5.79086 34 4 32.2091 4 30V6Z" fill="#FCFAFF"/>
<g clip-path="url(#clip0_90_938)">
<path d="M10.0454 18.8136C10.0454 15.9909 10.0454 13.0636 10.0454 10.2409C10.0454 9.09086 10.7772 8.2545 11.8227 8.04541C12.0318 8.04541 12.1363 8.04541 12.2409 8.04541C16.6318 8.04541 21.1272 8.04541 25.5181 8.04541C26.1454 8.04541 26.6681 8.2545 27.0863 8.56814C27.9227 9.29996 28.6545 10.1363 29.4909 10.9727C29.909 11.3909 30.0136 11.809 30.0136 12.4363C30.0136 17.4545 30.0136 22.4727 30.0136 27.4909C30.0136 28.6409 29.0727 29.5818 27.9227 29.6863C27.8181 29.6863 27.7136 29.6863 27.7136 29.6863C22.5909 29.6863 17.4681 29.6863 12.3454 29.6863C11.8227 29.6863 11.3 29.5818 10.8818 29.2681C10.2545 28.85 10.0454 28.2227 10.0454 27.4909C10.0454 24.5636 10.0454 21.6363 10.0454 18.8136ZM26.1454 28.4318C26.7727 28.4318 27.2954 28.4318 27.8181 28.4318C28.4454 28.4318 28.8636 28.0136 28.8636 27.3863C28.8636 22.3681 28.8636 17.4545 28.8636 12.4363C28.8636 12.1227 28.759 11.9136 28.55 11.7045C27.8181 10.9727 27.0863 10.1363 26.25 9.4045C25.9363 9.09086 25.6227 9.09086 25.309 9.19541C25.309 10.7636 25.309 12.3318 25.309 14.0045C25.309 14.9454 24.6818 15.4681 23.8454 15.4681C21.3363 15.4681 18.7227 15.4681 16.2136 15.4681C15.2727 15.4681 14.75 14.9454 14.75 14.0045C14.75 12.5409 14.75 10.9727 14.75 9.50905C14.75 9.4045 14.75 9.29996 14.75 9.19541C13.9136 9.19541 13.1818 9.19541 12.3454 9.19541C11.6136 9.19541 11.1954 9.61359 11.1954 10.3454C11.1954 14.4227 11.1954 18.3954 11.1954 22.4727C11.1954 24.1454 11.1954 25.8181 11.1954 27.3863C11.1954 28.0136 11.6136 28.4318 12.2409 28.4318C12.659 28.4318 12.9727 28.4318 13.3909 28.4318C13.6 28.4318 13.809 28.4318 14.0181 28.4318C14.0181 28.3272 14.0181 28.2227 14.0181 28.1181C14.0181 25.609 14.0181 23.1 14.0181 20.5909C14.0181 19.65 14.5409 19.1272 15.4818 19.1272C18.5136 19.1272 21.5454 19.1272 24.5772 19.1272C25.5181 19.1272 26.0409 19.65 26.0409 20.5909C26.0409 23.1 26.0409 25.609 26.0409 28.1181C26.1454 28.2227 26.1454 28.3272 26.1454 28.4318ZM24.8909 28.4318C24.8909 28.3272 24.8909 28.3272 24.8909 28.3272C24.8909 25.7136 24.8909 23.1 24.8909 20.5909C24.8909 20.2772 24.8909 20.2772 24.5772 20.2772C21.5454 20.2772 18.5136 20.2772 15.4818 20.2772C15.1681 20.2772 15.1681 20.2772 15.1681 20.6954C15.1681 23.2045 15.1681 25.8181 15.1681 28.3272C15.1681 28.4318 15.1681 28.4318 15.1681 28.5363C18.409 28.4318 21.65 28.4318 24.8909 28.4318ZM15.9 9.19541C15.9 9.29996 15.9 9.29996 15.9 9.4045C15.9 10.8681 15.9 12.4363 15.9 13.9C15.9 14.3181 16.0045 14.3181 16.3181 14.3181C18.8272 14.3181 21.3363 14.3181 23.8454 14.3181C24.159 14.3181 24.159 14.3181 24.159 14.0045C24.159 12.5409 24.159 10.9727 24.159 9.50905C24.159 9.4045 24.159 9.4045 24.159 9.29996C21.4409 9.19541 18.7227 9.19541 15.9 9.19541Z" fill="#6A42C2" stroke="#6A42C2" stroke-width="0.2"/>
<path d="M20.0817 23.7271C19.3499 23.7271 18.6181 23.7271 17.7817 23.7271C17.3636 23.7271 17.0499 23.5181 17.0499 23.0999C17.0499 22.7862 17.3636 22.5771 17.7817 22.5771C19.2454 22.5771 20.8136 22.5771 22.2772 22.5771C22.6954 22.5771 22.9045 22.7862 23.009 23.2044C23.009 23.5181 22.6954 23.8317 22.2772 23.8317C21.5454 23.7271 20.8136 23.7271 20.0817 23.7271Z" fill="#6A42C2"/>
<path d="M20.0817 26.132C19.3499 26.132 18.6181 26.132 17.7817 26.132C17.3636 26.132 17.0499 25.9229 17.0499 25.5047C17.0499 25.1911 17.3636 24.982 17.7817 24.8774C19.2454 24.8774 20.8136 24.8774 22.2772 24.8774C22.6954 24.8774 22.9045 25.0865 23.009 25.5047C23.009 25.8184 22.6954 26.132 22.2772 26.132C21.5454 26.132 20.8136 26.132 20.0817 26.132Z" fill="#6A42C2"/>
</g>
</g>
<defs>
<filter id="filter0_d_90_938" x="0" y="0" width="40" height="40" filterUnits="userSpaceOnUse" color-interpolation-filters="sRGB">
<feFlood flood-opacity="0" result="BackgroundImageFix"/>
<feColorMatrix in="SourceAlpha" type="matrix" values="0 0 0 0 0 0 0 0 0 0 0 0 0 0 0 0 0 0 127 0" result="hardAlpha"/>
<feOffset dy="2"/>
<feGaussianBlur stdDeviation="2"/>
<feComposite in2="hardAlpha" operator="out"/>
<feColorMatrix type="matrix" values="0 0 0 0 0.415686 0 0 0 0 0.258824 0 0 0 0 0.760784 0 0 0 0.24 0"/>
<feBlend mode="normal" in2="BackgroundImageFix" result="effect1_dropShadow_90_938"/>
<feBlend mode="normal" in="SourceGraphic" in2="effect1_dropShadow_90_938" result="shape"/>
</filter>
<clipPath id="clip0_90_938">
<rect width="21.9545" height="23" fill="white" transform="translate(9 7)"/>
</clipPath>
</defs>
</svg>